<svg width="1260" height="646" viewBox="0 0 1260 646" fill="none" xmlns="http://www.w3.org/2000/svg">
<path d="M345.025 36V50H358.025H370.025H381.525H394.025H406.025H417.525H429.525H441.525H453.525H465.025H477.025H489.025H500.025H513.025H525.025H536.525H548.025H560.525H572.025H583.525H595.525H608.025H619.275H630.525V141H619.275H608.025H595.525H583.525H572.025H560.525H548.025H536.525H525.025H513.025H500.025H489.025H477.025H465.025H453.525H441.525H429.525H417.525H406.025H394.025H381.525H370.025H358.025H345.025H334.525H322.525H310.365H298.525H287.025H275.025H263.025H251.025H239.525H232.025C220.425 134.2 215.191 120.5 214.025 114.5C222.821 118.537 231.341 120.786 239.525 121.596C243.437 121.982 247.273 122.04 251.025 121.806C255.128 121.55 259.131 120.946 263.025 120.042C267.151 119.085 271.155 117.791 275.025 116.22C279.183 114.532 283.188 112.524 287.025 110.269C291.047 107.905 294.886 105.27 298.525 102.448C302.748 99.173 306.703 95.6463 310.365 92C314.877 87.5074 318.945 82.8333 322.525 78.2246C327.515 71.7996 331.555 65.5017 334.525 60H324.525V50H334.525V36H345.025Z" fill="#F9F15D"/>
<path d="M916.025 36V50H903.025H891.025H879.525H867.025H855.025H843.525H831.525H819.525H807.525H796.025H784.025H772.025H761.025H748.025H736.025H724.525H713.025H700.525H689.025H677.525H665.525H653.025H641.775H630.525V141H641.775H653.025H665.525H677.525H689.025H700.525H713.025H724.525H736.025H748.025H761.025H772.025H784.025H796.025H807.525H819.525H831.525H843.525H855.025H867.025H879.525H891.025H903.025H916.025H926.525H938.525H950.684H962.525H974.025H986.025H998.025H1010.02H1021.52H1029.02C1040.62 134.2 1045.86 120.5 1047.02 114.5C1038.23 118.537 1029.71 120.786 1021.52 121.596C1017.61 121.982 1013.78 122.04 1010.02 121.806C1005.92 121.55 1001.92 120.946 998.025 120.042C993.898 119.085 989.894 117.791 986.025 116.22C981.866 114.532 977.861 112.524 974.025 110.269C970.002 107.905 966.163 105.27 962.525 102.448C958.301 99.173 954.346 95.6463 950.684 92C946.172 87.5074 942.104 82.8333 938.525 78.2246C933.534 71.7996 929.494 65.5017 926.525 60H936.525V50H926.525V36H916.025Z" fill="#F9F15D"/>
<path d="M345.025 50V36H334.525V50M345.025 50V141M345.025 50H358.025M334.525 50H324.525V60H334.525M334.525 50V60M334.525 60C331.555 65.5017 327.515 71.7996 322.525 78.2246M334.525 60V141M630.525 141V50M630.525 141H619.275M630.525 141H641.775M630.525 50H619.275M630.525 50H641.775M239.525 121.596C231.341 120.786 222.821 118.537 214.025 114.5C215.191 120.5 220.425 134.2 232.025 141H239.525M239.525 121.596V141M239.525 121.596C243.437 121.982 247.273 122.04 251.025 121.806M239.525 141H251.025M251.025 121.806V141M251.025 121.806C255.128 121.55 259.131 120.946 263.025 120.042M251.025 141H263.025M263.025 120.042V141M263.025 120.042C267.151 119.085 271.155 117.791 275.025 116.22M263.025 141H275.025M275.025 141V116.22M275.025 141H287.025M275.025 116.22C279.183 114.532 283.188 112.524 287.025 110.269M287.025 110.269V141M287.025 110.269C291.047 107.905 294.886 105.27 298.525 102.448M287.025 141H298.525M298.525 141V102.448M298.525 141H310.365M298.525 102.448C302.748 99.173 306.703 95.6463 310.365 92M310.365 92V141M310.365 92C314.877 87.5074 318.945 82.8333 322.525 78.2246M310.365 141H322.525M322.525 141V78.2246M322.525 141H334.525M334.525 141H345.025M345.025 141H358.025M358.025 141V50M358.025 141H370.025M358.025 50H370.025M370.025 141V50M370.025 141H381.525M370.025 50H381.525M381.525 141V50M381.525 141H394.025M381.525 50H394.025M394.025 50V141M394.025 50H406.025M394.025 141H406.025M406.025 141V50M406.025 141H417.525M406.025 50H417.525M417.525 50V141M417.525 50H429.525M417.525 141H429.525M429.525 141V50M429.525 141H441.525M429.525 50H441.525M441.525 50V141M441.525 50H453.525M441.525 141H453.525M453.525 141V50M453.525 141H465.025M453.525 50H465.025M465.025 50V141M465.025 50H477.025M465.025 141H477.025M477.025 141V50M477.025 141H489.025M477.025 50H489.025M489.025 50V141M489.025 50H500.025M489.025 141H500.025M500.025 141V50M500.025 141H513.025M500.025 50H513.025M513.025 50V141M513.025 50H525.025M513.025 141H525.025M525.025 141V50M525.025 141H536.525M525.025 50H536.525M536.525 50V141M536.525 50H548.025M536.525 141H548.025M548.025 141V50M548.025 141H560.525M548.025 50H560.525M560.525 50V141M560.525 50H572.025M560.525 141H572.025M572.025 141V50M572.025 141H583.525M572.025 50H583.525M583.525 50V141M583.525 50H595.525M583.525 141H595.525M595.525 141V50M595.525 141H608.025M595.525 50H608.025M608.025 50V141M608.025 50H619.275M608.025 141H619.275M619.275 141V50M916.025 50V36H926.525V50M916.025 50V141M916.025 50H903.025M926.525 50H936.525V60H926.525M926.525 50V60M926.525 60C929.494 65.5017 933.534 71.7996 938.525 78.2246M926.525 60V141M1021.52 121.596C1029.71 120.786 1038.23 118.537 1047.02 114.5C1045.86 120.5 1040.62 134.2 1029.02 141H1021.52M1021.52 121.596V141M1021.52 121.596C1017.61 121.982 1013.78 122.04 1010.02 121.806M1021.52 141H1010.02M1010.02 121.806V141M1010.02 121.806C1005.92 121.55 1001.92 120.946 998.025 120.042M1010.02 141H998.025M998.025 120.042V141M998.025 120.042C993.898 119.085 989.894 117.791 986.025 116.22M998.025 141H986.025M986.025 141V116.22M986.025 141H974.025M986.025 116.22C981.866 114.532 977.861 112.524 974.025 110.269M974.025 110.269V141M974.025 110.269C970.002 107.905 966.163 105.27 962.525 102.448M974.025 141H962.525M962.525 141V102.448M962.525 141H950.684M962.525 102.448C958.301 99.173 954.346 95.6463 950.684 92M950.684 92V141M950.684 92C946.172 87.5074 942.104 82.8333 938.525 78.2246M950.684 141H938.525M938.525 141V78.2246M938.525 141H926.525M926.525 141H916.025M916.025 141H903.025M903.025 141V50M903.025 141H891.025M903.025 50H891.025M891.025 141V50M891.025 141H879.525M891.025 50H879.525M879.525 141V50M879.525 141H867.025M879.525 50H867.025M867.025 50V141M867.025 50H855.025M867.025 141H855.025M855.025 141V50M855.025 141H843.525M855.025 50H843.525M843.525 50V141M843.525 50H831.525M843.525 141H831.525M831.525 141V50M831.525 141H819.525M831.525 50H819.525M819.525 50V141M819.525 50H807.525M819.525 141H807.525M807.525 141V50M807.525 141H796.025M807.525 50H796.025M796.025 50V141M796.025 50H784.025M796.025 141H784.025M784.025 141V50M784.025 141H772.025M784.025 50H772.025M772.025 50V141M772.025 50H761.025M772.025 141H761.025M761.025 141V50M761.025 141H748.025M761.025 50H748.025M748.025 50V141M748.025 50H736.025M748.025 141H736.025M736.025 141V50M736.025 141H724.525M736.025 50H724.525M724.525 50V141M724.525 50H713.025M724.525 141H713.025M713.025 141V50M713.025 141H700.525M713.025 50H700.525M700.525 50V141M700.525 50H689.025M700.525 141H689.025M689.025 141V50M689.025 141H677.525M689.025 50H677.525M677.525 50V141M677.525 50H665.525M677.525 141H665.525M665.525 141V50M665.525 141H653.025M665.525 50H653.025M653.025 50V141M653.025 50H641.775M653.025 141H641.775M641.775 141V50" stroke="#842800" stroke-width="1.5"/>
<circle cx="196.025" cy="433.5" r="15.5" fill="#1480D0"/>
<circle cx="196.025" cy="433.5" r="15.5" fill="#1480D0"/>
<circle cx="180.025" cy="442.5" r="15.5" fill="#1480D0"/>
<circle cx="180.025" cy="442.5" r="15.5" fill="#1480D0"/>
<circle cx="161.025" cy="451.5" r="15.5" fill="#1480D0"/>
<circle cx="161.025" cy="451.5" r="15.5" fill="#1480D0"/>
<circle cx="15.5" cy="15.5" r="15.5" transform="matrix(-1 0 0 1 288.525 417)" fill="#1480D0"/>
<circle cx="15.5" cy="15.5" r="15.5" transform="matrix(-1 0 0 1 288.525 417)" fill="#1480D0"/>
<circle cx="15.5" cy="15.5" r="15.5" transform="matrix(-1 0 0 1 304.525 426)" fill="#1480D0"/>
<circle cx="15.5" cy="15.5" r="15.5" transform="matrix(-1 0 0 1 304.525 426)" fill="#1480D0"/>
<circle cx="15.5" cy="15.5" r="15.5" transform="matrix(-1 0 0 1 323.525 435)" fill="#1480D0"/>
<circle cx="15.5" cy="15.5" r="15.5" transform="matrix(-1 0 0 1 323.525 435)" fill="#1480D0"/>
<rect x="150.525" y="304" width="129" height="17" fill="#F9F05D"/>
<rect x="149.525" y="321" width="155" height="15" fill="#BC190C"/>
<rect x="149.525" y="336" width="155" height="102" fill="#F9F05D"/>
<rect x="176.525" y="292" width="77" height="12" fill="#7F0D09"/>
<path d="M163.025 186.5V202.5H174.525H180.525H185.525H192.025H196.525H202.525H207.025H212.525H217.525H223.025H228.525H234.025H238.525H244.025H249.525H254.525H259.525H264.525H270.025H275.025H279.525H285.525H290.025H295.525H304.525V277H295.525H285.525H275.025H264.525H255.403H245.049H234.905H224.525H214.525H204.025H194.525H184.025H174.525H163.025H153.525H143.525H132.525H123.025H112.525H102.525H92.5245H82.5245H72.5245H62.0245H53.0245C38.6245 277 35.6912 257.333 36.0245 247.5C41.2245 270.7 61.5245 266.5 71.0245 261.5L157.025 208.5H143.525V202.5H157.025V186.5H163.025Z" fill="#F9F15D"/>
<path d="M174.525 202.5H163.025V186.5H157.025V202.5H143.525V208.5H157.025L71.0245 261.5C61.5245 266.5 41.2245 270.7 36.0245 247.5C35.6912 257.333 38.6245 277 53.0245 277C54.5291 277 57.6151 277 62.0245 277M174.525 202.5L62.0245 277M174.525 202.5H180.525M62.0245 277C64.9625 277 68.4879 277 72.5245 277M72.5245 277L180.525 202.5M72.5245 277C75.5766 277 78.921 277 82.5245 277M180.525 202.5H185.525M185.525 202.5L82.5245 277M185.525 202.5H192.025M82.5245 277C85.6679 277 89.0086 277 92.5245 277M92.5245 277L192.025 202.5M92.5245 277C95.7186 277 99.0574 277 102.525 277M192.025 202.5H196.525M196.525 202.5L102.525 277M196.525 202.5H202.525M102.525 277C105.751 277 109.089 277 112.525 277M112.525 277L202.525 202.5M112.525 277C115.933 277 119.437 277 123.025 277M202.525 202.5H207.025M207.025 202.5L123.025 277M207.025 202.5H212.525M123.025 277C126.131 277 129.301 277 132.525 277M132.525 277L212.525 202.5M132.525 277C136.127 277 139.798 277 143.525 277M212.525 202.5H217.525M217.525 202.5L143.525 277M217.525 202.5H223.025M143.525 277C146.817 277 150.153 277 153.525 277M153.525 277L223.025 202.5M153.525 277C156.663 277 159.831 277 163.025 277M223.025 202.5H228.525M228.525 202.5L163.025 277M228.525 202.5H234.025M163.025 277C166.827 277 170.664 277 174.525 277M174.525 277L234.025 202.5M174.525 277C177.678 277 180.846 277 184.025 277M234.025 202.5H238.525M238.525 202.5L184.025 277M238.525 202.5H244.025M184.025 277C187.516 277 191.018 277 194.525 277M194.525 277L244.025 202.5M194.525 277C197.69 277 200.859 277 204.025 277M244.025 202.5H249.525M249.525 202.5L204.025 277M249.525 202.5H254.525M204.025 277C207.531 277 211.033 277 214.525 277M214.525 277L254.525 202.5M214.525 277C217.871 277 221.206 277 224.525 277M254.525 202.5H259.525M259.525 202.5L224.525 277M259.525 202.5H264.525M224.525 277C228.007 277 231.47 277 234.905 277M234.905 277L264.525 202.5M234.905 277C238.316 277 241.7 277 245.049 277M264.525 202.5H270.025M245.049 277L270.025 202.5M245.049 277C248.541 277 251.996 277 255.403 277M270.025 202.5H275.025M255.403 277L275.025 202.5M255.403 277C258.484 277 261.527 277 264.525 277M275.025 202.5H279.525M264.525 277L279.525 202.5M264.525 277C268.092 277 271.596 277 275.025 277M279.525 202.5H285.525M275.025 277L285.525 202.5M275.025 277C278.611 277 282.115 277 285.525 277M285.525 202.5H290.025M290.025 202.5L285.525 277M290.025 202.5H295.525M285.525 277C288.958 277 292.296 277 295.525 277M295.525 277C298.629 277 301.633 277 304.525 277V202.5H295.525M295.525 277V202.5" stroke="#842800" stroke-width="1.5"/>
<rect x="123.525" y="321" width="40" height="218" fill="#BC190C"/>
<rect x="204.525" y="368" width="60" height="37" fill="#BC190C"/>
<rect x="169.525" y="368" width="28" height="37" fill="#BC190C"/>
<rect x="270.525" y="368" width="28" height="37" fill="#BC190C"/>
<rect x="169.525" y="342" width="129" height="19" fill="#1480D0"/>
<rect x="169.525" y="412" width="129" height="19" fill="#1480D0"/>
<rect x="111.525" y="539" width="62" height="71" fill="#CBCCC6"/>
<rect x="103.525" y="600" width="262" height="10" fill="#CBCCC6"/>
<rect x="294.525" y="539" width="62" height="71" fill="#CBCCC6"/>
<rect x="126.525" y="553" width="34" height="34" fill="#DDEDD5"/>
<rect x="309.525" y="553" width="34" height="34" fill="#DDEDD5"/>
<circle cx="15.5" cy="15.5" r="15.5" transform="matrix(-1 0 0 1 1078.52 418)" fill="#1480D0"/>
<circle cx="15.5" cy="15.5" r="15.5" transform="matrix(-1 0 0 1 1078.52 418)" fill="#1480D0"/>
<circle cx="15.5" cy="15.5" r="15.5" transform="matrix(-1 0 0 1 1094.52 427)" fill="#1480D0"/>
<circle cx="15.5" cy="15.5" r="15.5" transform="matrix(-1 0 0 1 1094.52 427)" fill="#1480D0"/>
<circle cx="15.5" cy="15.5" r="15.5" transform="matrix(-1 0 0 1 1113.52 436)" fill="#1480D0"/>
<circle cx="15.5" cy="15.5" r="15.5" transform="matrix(-1 0 0 1 1113.52 436)" fill="#1480D0"/>
<circle cx="986.025" cy="432.5" r="15.5" fill="#1480D0"/>
<circle cx="986.025" cy="432.5" r="15.5" fill="#1480D0"/>
<circle cx="970.025" cy="441.5" r="15.5" fill="#1480D0"/>
<circle cx="970.025" cy="441.5" r="15.5" fill="#1480D0"/>
<circle cx="951.025" cy="450.5" r="15.5" fill="#1480D0"/>
<circle cx="951.025" cy="450.5" r="15.5" fill="#1480D0"/>
<rect width="129" height="17" transform="matrix(-1 0 0 1 1108.52 304)" fill="#F9F05D"/>
<rect width="155" height="15" transform="matrix(-1 0 0 1 1109.52 321)" fill="#BC190C"/>
<rect width="155" height="102" transform="matrix(-1 0 0 1 1109.52 336)" fill="#F9F05D"/>
<rect width="77" height="12" transform="matrix(-1 0 0 1 1082.52 292)" fill="#7F0D09"/>
<path d="M1096.02 186.5V202.5H1084.52H1078.52H1073.52H1067.02H1062.52H1056.52H1052.02H1046.52H1041.52H1036.02H1030.52H1025.02H1020.52H1015.02H1009.52H1004.52H999.525H994.525H989.025H984.025H979.525H973.525H969.025H963.525H954.525V277H963.525H973.525H984.025H994.525H1003.65H1014H1024.14H1034.52H1044.52H1055.02H1064.52H1075.02H1084.52H1096.02H1105.52H1115.52H1126.52H1136.02H1146.52H1156.52H1166.52H1176.52H1186.52H1197.02H1206.02C1220.42 277 1223.36 257.333 1223.02 247.5C1217.82 270.7 1197.52 266.5 1188.02 261.5L1102.02 208.5H1115.52V202.5H1102.02V186.5H1096.02Z" fill="#F9F15D"/>
<path d="M1084.52 202.5H1096.02V186.5H1102.02V202.5H1115.52V208.5H1102.02L1188.02 261.5C1197.52 266.5 1217.82 270.7 1223.02 247.5C1223.36 257.333 1220.42 277 1206.02 277C1204.52 277 1201.43 277 1197.02 277M1084.52 202.5L1197.02 277M1084.52 202.5H1078.52M1197.02 277C1194.09 277 1190.56 277 1186.52 277M1186.52 277L1078.52 202.5M1186.52 277C1183.47 277 1180.13 277 1176.52 277M1078.52 202.5H1073.52M1073.52 202.5L1176.52 277M1073.52 202.5H1067.02M1176.52 277C1173.38 277 1170.04 277 1166.52 277M1166.52 277L1067.02 202.5M1166.52 277C1163.33 277 1159.99 277 1156.52 277M1067.02 202.5H1062.52M1062.52 202.5L1156.52 277M1062.52 202.5H1056.52M1156.52 277C1153.3 277 1149.96 277 1146.52 277M1146.52 277L1056.52 202.5M1146.52 277C1143.12 277 1139.61 277 1136.02 277M1056.52 202.5H1052.02M1052.02 202.5L1136.02 277M1052.02 202.5H1046.52M1136.02 277C1132.92 277 1129.75 277 1126.52 277M1126.52 277L1046.52 202.5M1126.52 277C1122.92 277 1119.25 277 1115.52 277M1046.52 202.5H1041.52M1041.52 202.5L1115.52 277M1041.52 202.5H1036.02M1115.52 277C1112.23 277 1108.9 277 1105.52 277M1105.52 277L1036.02 202.5M1105.52 277C1102.39 277 1099.22 277 1096.02 277M1036.02 202.5H1030.52M1030.52 202.5L1096.02 277M1030.52 202.5H1025.02M1096.02 277C1092.22 277 1088.38 277 1084.52 277M1084.52 277L1025.02 202.5M1084.52 277C1081.37 277 1078.2 277 1075.02 277M1025.02 202.5H1020.52M1020.52 202.5L1075.02 277M1020.52 202.5H1015.02M1075.02 277C1071.53 277 1068.03 277 1064.52 277M1064.52 277L1015.02 202.5M1064.52 277C1061.36 277 1058.19 277 1055.02 277M1015.02 202.5H1009.52M1009.52 202.5L1055.02 277M1009.52 202.5H1004.52M1055.02 277C1051.52 277 1048.02 277 1044.52 277M1044.52 277L1004.52 202.5M1044.52 277C1041.18 277 1037.84 277 1034.52 277M1004.52 202.5H999.525M999.525 202.5L1034.52 277M999.525 202.5H994.525M1034.52 277C1031.04 277 1027.58 277 1024.14 277M1024.14 277L994.525 202.5M1024.14 277C1020.73 277 1017.35 277 1014 277M994.525 202.5H989.025M1014 277L989.025 202.5M1014 277C1010.51 277 1007.05 277 1003.65 277M989.025 202.5H984.025M1003.65 277L984.025 202.5M1003.65 277C1000.56 277 997.522 277 994.525 277M984.025 202.5H979.525M994.525 277L979.525 202.5M994.525 277C990.957 277 987.453 277 984.025 277M979.525 202.5H973.525M984.025 277L973.525 202.5M984.025 277C980.438 277 976.934 277 973.525 277M973.525 202.5H969.025M969.025 202.5L973.525 277M969.025 202.5H963.525M973.525 277C970.091 277 966.753 277 963.525 277M963.525 277C960.42 277 957.416 277 954.525 277V202.5H963.525M963.525 277V202.5" stroke="#842800" stroke-width="1.5"/>
<rect width="40" height="218" transform="matrix(-1 0 0 1 1135.52 321)" fill="#BC190C"/>
<rect width="60" height="37" transform="matrix(-1 0 0 1 1054.52 368)" fill="#BC190C"/>
<rect width="28" height="37" transform="matrix(-1 0 0 1 1089.52 368)" fill="#BC190C"/>
<rect width="28" height="37" transform="matrix(-1 0 0 1 988.525 368)" fill="#BC190C"/>
<rect width="129" height="19" transform="matrix(-1 0 0 1 1089.52 342)" fill="#1480D0"/>
<rect width="129" height="19" transform="matrix(-1 0 0 1 1089.52 412)" fill="#1480D0"/>
<rect width="62" height="71" transform="matrix(-1 0 0 1 1147.52 539)" fill="#CBCCC6"/>
<rect width="262" height="10" transform="matrix(-1 0 0 1 1155.52 600)" fill="#CBCCC6"/>
<rect width="62" height="71" transform="matrix(-1 0 0 1 964.525 539)" fill="#CBCCC6"/>
<rect width="34" height="34" transform="matrix(-1 0 0 1 1132.52 553)" fill="#DDEDD5"/>
<rect width="34" height="34" transform="matrix(-1 0 0 1 949.525 553)" fill="#DDEDD5"/>
<circle cx="377.025" cy="338.5" r="15.5" fill="#1480D0"/>
<circle cx="377.025" cy="338.5" r="15.5" fill="#1480D0"/>
<circle cx="361.025" cy="347.5" r="15.5" fill="#1480D0"/>
<circle cx="361.025" cy="347.5" r="15.5" fill="#1480D0"/>
<circle cx="342.025" cy="356.5" r="15.5" fill="#1480D0"/>
<circle cx="342.025" cy="356.5" r="15.5" fill="#1480D0"/>
<circle cx="15.5" cy="15.5" r="15.5" transform="matrix(-1 0 0 1 898.525 323)" fill="#1480D0"/>
<circle cx="15.5" cy="15.5" r="15.5" transform="matrix(-1 0 0 1 898.525 323)" fill="#1480D0"/>
<circle cx="15.5" cy="15.5" r="15.5" transform="matrix(-1 0 0 1 914.525 332)" fill="#1480D0"/>
<circle cx="15.5" cy="15.5" r="15.5" transform="matrix(-1 0 0 1 914.525 332)" fill="#1480D0"/>
<circle cx="15.5" cy="15.5" r="15.5" transform="matrix(-1 0 0 1 933.525 341)" fill="#1480D0"/>
<circle cx="15.5" cy="15.5" r="15.5" transform="matrix(-1 0 0 1 933.525 341)" fill="#1480D0"/>
<rect x="232.525" y="142" width="796" height="14" fill="#BC190C"/>
<rect x="306.525" y="156" width="648" height="15" fill="#7F0D09"/>
<rect x="306.525" y="171" width="648" height="15" fill="#F9F15D"/>
<rect x="306.525" y="186" width="648" height="15" fill="#BC190C"/>
<rect x="52.5245" y="277" width="1156" height="15" fill="#BC190C"/>
<rect x="304.525" y="186" width="40" height="353" fill="#BC190C"/>
<rect x="914.525" y="186" width="40" height="353" fill="#BC190C"/>
<path d="M344.525 201H632V342H344.525V201Z" fill="#F9F15D"/>
<path d="M351.561 235H428.958V310H351.561V235Z" fill="#BC190C"/>
<path d="M435.994 235H533.494V310H435.994V235Z" fill="#BC190C"/>
<path d="M351.561 227V209.5H528.469L518.92 219L526.961 227H351.561Z" fill="#1480D0"/>
<path d="M351.561 335.5V318H528.469L518.92 327.5L526.961 335.5H351.561Z" fill="#1480D0"/>
<path d="M540.531 235H632V310H540.531V235Z" fill="#1480D0"/>
<path d="M536.651 211H632V228H536.651L529.474 219.5L536.651 211Z" fill="#BC190C"/>
<path d="M536.651 318H632V335H536.651L529.474 326.5L536.651 318Z" fill="#BC190C"/>
<path d="M915.475 201H628V342H915.475V201Z" fill="#F9F15D"/>
<path d="M908.439 235H831.042V310H908.439V235Z" fill="#BC190C"/>
<path d="M824.006 235H726.506V310H824.006V235Z" fill="#BC190C"/>
<path d="M908.439 227V209.5H731.531L741.08 219L733.039 227H908.439Z" fill="#1480D0"/>
<path d="M908.439 335.5V318H731.531L741.08 327.5L733.039 335.5H908.439Z" fill="#1480D0"/>
<path d="M719.469 235H628V310H719.469V235Z" fill="#1480D0"/>
<path d="M723.349 211H628V228H723.349L730.526 219.5L723.349 211Z" fill="#BC190C"/>
<path d="M723.349 318H628V335H723.349L730.526 326.5L723.349 318Z" fill="#BC190C"/>
</svg>
